<svg width="70" height="70" viewBox="0 0 70 70" fill="none" xmlns="http://www.w3.org/2000/svg">
<path d="M70 35C70 54.33 54.33 70 35 70C15.67 70 0 54.33 0 35C0 15.67 15.67 0 35 0C54.33 0 70 15.67 70 35Z" fill="#231F20"/>
<path d="M29.68 52.37C23.04 52.37 17.64 46.97 17.64 40.33C17.64 33.69 23.04 28.29 29.68 28.29H49.51V27.08C49.51 23.45 46.55 20.49 42.92 20.49H29.68C27.92 20.49 26.26 21.18 25.01 22.42C24.46 22.98 23.55 22.98 23 22.42C22.44 21.87 22.44 20.97 23 20.41C24.78 18.62 27.16 17.64 29.68 17.64H42.92C48.12 17.64 52.35 21.87 52.35 27.07V29.69C52.35 30.47 51.72 31.11 50.93 31.11H29.68C24.61 31.12 20.48 35.25 20.48 40.32C20.48 45.39 24.61 49.52 29.68 49.52L49.48 49.5V41.7H29.65C28.87 41.7 28.23 41.06 28.23 40.28C28.23 39.5 28.87 38.86 29.65 38.86H50.91C51.29 38.86 51.65 39.01 51.92 39.28C52.19 39.55 52.34 39.91 52.34 40.29V50.93C52.33 51.71 51.69 52.35 50.91 52.35L29.69 52.37H29.68Z" fill="white"/>
</svg>
